<?xml version="1.0" encoding="UTF-8" standalone="no"?>
<!DOCTYPE svg PUBLIC "-//W3C//DTD SVG 1.1//EN"
 "http://www.w3.org/Graphics/SVG/1.1/DTD/svg11.dtd">
<!-- Generated by graphviz version 2.43.0 (0)
 -->
<!-- Title: tree Pages: 1 -->
<svg width="1850pt" height="638pt"
 viewBox="0.00 0.00 1849.95 637.72" xmlns="http://www.w3.org/2000/svg" xmlns:xlink="http://www.w3.org/1999/xlink">
<g id="graph0" class="graph" transform="scale(1 1) rotate(0) translate(4 633.72)">
<title>tree</title>
<polygon fill="white" stroke="transparent" points="-4,4 -4,-633.72 1845.95,-633.72 1845.95,4 -4,4"/>
<!-- 123456780 -->
<g id="node1" class="node">
<title>123456780</title>
<ellipse fill="none" stroke="black" cx="874.48" cy="-592.24" rx="37.45" ry="37.45"/>
<text text-anchor="middle" x="874.48" y="-603.54" font-family="Times,serif" font-size="14.00">123</text>
<text text-anchor="middle" x="874.48" y="-588.54" font-family="Times,serif" font-size="14.00">456</text>
<text text-anchor="middle" x="874.48" y="-573.54" font-family="Times,serif" font-size="14.00">780</text>
</g>
<!-- 123450786 -->
<g id="node2" class="node">
<title>123450786</title>
<ellipse fill="none" stroke="black" cx="642.48" cy="-481.29" rx="37.45" ry="37.45"/>
<text text-anchor="middle" x="642.48" y="-492.59" font-family="Times,serif" font-size="14.00">123</text>
<text text-anchor="middle" x="642.48" y="-477.59" font-family="Times,serif" font-size="14.00">450</text>
<text text-anchor="middle" x="642.48" y="-462.59" font-family="Times,serif" font-size="14.00">786</text>
</g>
<!-- 123456780&#45;&gt;123450786 -->
<g id="edge1" class="edge">
<title>123456780&#45;&gt;123450786</title>
<path fill="none" stroke="black" d="M840.74,-575.4C799.68,-556.12 730.27,-523.52 685.43,-502.46"/>
<polygon fill="black" stroke="black" points="686.79,-499.23 676.25,-498.15 683.82,-505.57 686.79,-499.23"/>
</g>
<!-- 123456708 -->
<g id="node27" class="node">
<title>123456708</title>
<ellipse fill="none" stroke="black" cx="1199.48" cy="-481.29" rx="37.45" ry="37.45"/>
<text text-anchor="middle" x="1199.48" y="-492.59" font-family="Times,serif" font-size="14.00">123</text>
<text text-anchor="middle" x="1199.48" y="-477.59" font-family="Times,serif" font-size="14.00">456</text>
<text text-anchor="middle" x="1199.48" y="-462.59" font-family="Times,serif" font-size="14.00">708</text>
</g>
<!-- 123456780&#45;&gt;123456708 -->
<g id="edge2" class="edge">
<title>123456780&#45;&gt;123456708</title>
<path fill="none" stroke="black" d="M909.88,-579.38C969.34,-559.44 1089.17,-519.27 1154.51,-497.37"/>
<polygon fill="black" stroke="black" points="1155.75,-500.64 1164.12,-494.14 1153.53,-494 1155.75,-500.64"/>
</g>
<!-- 120453786 -->
<g id="node3" class="node">
<title>120453786</title>
<ellipse fill="none" stroke="black" cx="410.48" cy="-370.34" rx="37.45" ry="37.45"/>
<text text-anchor="middle" x="410.48" y="-381.64" font-family="Times,serif" font-size="14.00">120</text>
<text text-anchor="middle" x="410.48" y="-366.64" font-family="Times,serif" font-size="14.00">453</text>
<text text-anchor="middle" x="410.48" y="-351.64" font-family="Times,serif" font-size="14.00">786</text>
</g>
<!-- 123450786&#45;&gt;120453786 -->
<g id="edge3" class="edge">
<title>123450786&#45;&gt;120453786</title>
<path fill="none" stroke="black" d="M608.74,-464.45C567.68,-445.16 498.27,-412.57 453.43,-391.51"/>
<polygon fill="black" stroke="black" points="454.79,-388.28 444.25,-387.2 451.82,-394.62 454.79,-388.28"/>
</g>
<!-- 123405786 -->
<g id="node11" class="node">
<title>123405786</title>
<ellipse fill="none" stroke="black" cx="642.48" cy="-370.34" rx="37.45" ry="37.45"/>
<text text-anchor="middle" x="642.48" y="-381.64" font-family="Times,serif" font-size="14.00">123</text>
<text text-anchor="middle" x="642.48" y="-366.64" font-family="Times,serif" font-size="14.00">405</text>
<text text-anchor="middle" x="642.48" y="-351.64" font-family="Times,serif" font-size="14.00">786</text>
</g>
<!-- 123450786&#45;&gt;123405786 -->
<g id="edge4" class="edge">
<title>123450786&#45;&gt;123405786</title>
<path fill="none" stroke="black" d="M642.48,-443.71C642.48,-435.53 642.48,-426.75 642.48,-418.23"/>
<polygon fill="black" stroke="black" points="645.98,-418.01 642.48,-408.01 638.98,-418.01 645.98,-418.01"/>
</g>
<!-- 102453786 -->
<g id="node4" class="node">
<title>102453786</title>
<ellipse fill="none" stroke="black" cx="316.48" cy="-259.38" rx="37.45" ry="37.45"/>
<text text-anchor="middle" x="316.48" y="-270.68" font-family="Times,serif" font-size="14.00">102</text>
<text text-anchor="middle" x="316.48" y="-255.68" font-family="Times,serif" font-size="14.00">453</text>
<text text-anchor="middle" x="316.48" y="-240.68" font-family="Times,serif" font-size="14.00">786</text>
</g>
<!-- 120453786&#45;&gt;102453786 -->
<g id="edge5" class="edge">
<title>120453786&#45;&gt;102453786</title>
<path fill="none" stroke="black" d="M386.27,-341.28C374.43,-327.55 360.04,-310.88 347.41,-296.24"/>
<polygon fill="black" stroke="black" points="349.78,-293.63 340.6,-288.35 344.48,-298.2 349.78,-293.63"/>
</g>
<!-- 152403786 -->
<g id="node5" class="node">
<title>152403786</title>
<ellipse fill="none" stroke="black" cx="177.48" cy="-148.43" rx="37.45" ry="37.45"/>
<text text-anchor="middle" x="177.48" y="-159.73" font-family="Times,serif" font-size="14.00">152</text>
<text text-anchor="middle" x="177.48" y="-144.73" font-family="Times,serif" font-size="14.00">403</text>
<text text-anchor="middle" x="177.48" y="-129.73" font-family="Times,serif" font-size="14.00">786</text>
</g>
<!-- 102453786&#45;&gt;152403786 -->
<g id="edge6" class="edge">
<title>102453786&#45;&gt;152403786</title>
<path fill="none" stroke="black" d="M287.34,-235.54C266.21,-218.98 237.46,-196.45 214.68,-178.59"/>
<polygon fill="black" stroke="black" points="216.61,-175.65 206.58,-172.24 212.29,-181.16 216.61,-175.65"/>
</g>
<!-- 012453786 -->
<g id="node9" class="node">
<title>012453786</title>
<ellipse fill="none" stroke="black" cx="316.48" cy="-148.43" rx="37.45" ry="37.45"/>
<text text-anchor="middle" x="316.48" y="-159.73" font-family="Times,serif" font-size="14.00">012</text>
<text text-anchor="middle" x="316.48" y="-144.73" font-family="Times,serif" font-size="14.00">453</text>
<text text-anchor="middle" x="316.48" y="-129.73" font-family="Times,serif" font-size="14.00">786</text>
</g>
<!-- 102453786&#45;&gt;012453786 -->
<g id="edge7" class="edge">
<title>102453786&#45;&gt;012453786</title>
<path fill="none" stroke="black" d="M316.48,-221.8C316.48,-213.63 316.48,-204.85 316.48,-196.32"/>
<polygon fill="black" stroke="black" points="319.98,-196.1 316.48,-186.1 312.98,-196.1 319.98,-196.1"/>
</g>
<!-- 152483706 -->
<g id="node6" class="node">
<title>152483706</title>
<ellipse fill="none" stroke="black" cx="37.48" cy="-37.48" rx="37.45" ry="37.45"/>
<text text-anchor="middle" x="37.48" y="-48.78" font-family="Times,serif" font-size="14.00">152</text>
<text text-anchor="middle" x="37.48" y="-33.78" font-family="Times,serif" font-size="14.00">483</text>
<text text-anchor="middle" x="37.48" y="-18.78" font-family="Times,serif" font-size="14.00">706</text>
</g>
<!-- 152403786&#45;&gt;152483706 -->
<g id="edge8" class="edge">
<title>152403786&#45;&gt;152483706</title>
<path fill="none" stroke="black" d="M148.13,-124.59C126.85,-108.03 97.9,-85.5 74.95,-67.64"/>
<polygon fill="black" stroke="black" points="76.83,-64.67 66.79,-61.29 72.53,-70.19 76.83,-64.67"/>
</g>
<!-- 152430786 -->
<g id="node7" class="node">
<title>152430786</title>
<ellipse fill="none" stroke="black" cx="130.48" cy="-37.48" rx="37.45" ry="37.45"/>
<text text-anchor="middle" x="130.48" y="-48.78" font-family="Times,serif" font-size="14.00">152</text>
<text text-anchor="middle" x="130.48" y="-33.78" font-family="Times,serif" font-size="14.00">430</text>
<text text-anchor="middle" x="130.48" y="-18.78" font-family="Times,serif" font-size="14.00">786</text>
</g>
<!-- 152403786&#45;&gt;152430786 -->
<g id="edge9" class="edge">
<title>152403786&#45;&gt;152430786</title>
<path fill="none" stroke="black" d="M162.99,-113.85C158.57,-103.6 153.64,-92.18 148.99,-81.4"/>
<polygon fill="black" stroke="black" points="152.17,-79.93 144.99,-72.13 145.74,-82.7 152.17,-79.93"/>
</g>
<!-- 152043786 -->
<g id="node8" class="node">
<title>152043786</title>
<ellipse fill="none" stroke="black" cx="223.48" cy="-37.48" rx="37.45" ry="37.45"/>
<text text-anchor="middle" x="223.48" y="-48.78" font-family="Times,serif" font-size="14.00">152</text>
<text text-anchor="middle" x="223.48" y="-33.78" font-family="Times,serif" font-size="14.00">043</text>
<text text-anchor="middle" x="223.48" y="-18.78" font-family="Times,serif" font-size="14.00">786</text>
</g>
<!-- 152403786&#45;&gt;152043786 -->
<g id="edge10" class="edge">
<title>152403786&#45;&gt;152043786</title>
<path fill="none" stroke="black" d="M191.78,-113.55C196.02,-103.51 200.72,-92.37 205.18,-81.81"/>
<polygon fill="black" stroke="black" points="208.52,-82.91 209.18,-72.33 202.07,-80.18 208.52,-82.91"/>
</g>
<!-- 412053786 -->
<g id="node10" class="node">
<title>412053786</title>
<ellipse fill="none" stroke="black" cx="316.48" cy="-37.48" rx="37.45" ry="37.45"/>
<text text-anchor="middle" x="316.48" y="-48.78" font-family="Times,serif" font-size="14.00">412</text>
<text text-anchor="middle" x="316.48" y="-33.78" font-family="Times,serif" font-size="14.00">053</text>
<text text-anchor="middle" x="316.48" y="-18.78" font-family="Times,serif" font-size="14.00">786</text>
</g>
<!-- 012453786&#45;&gt;412053786 -->
<g id="edge11" class="edge">
<title>012453786&#45;&gt;412053786</title>
<path fill="none" stroke="black" d="M316.48,-110.85C316.48,-102.67 316.48,-93.89 316.48,-85.37"/>
<polygon fill="black" stroke="black" points="319.98,-85.15 316.48,-75.15 312.98,-85.15 319.98,-85.15"/>
</g>
<!-- 103425786 -->
<g id="node12" class="node">
<title>103425786</title>
<ellipse fill="none" stroke="black" cx="502.48" cy="-259.38" rx="37.45" ry="37.45"/>
<text text-anchor="middle" x="502.48" y="-270.68" font-family="Times,serif" font-size="14.00">103</text>
<text text-anchor="middle" x="502.48" y="-255.68" font-family="Times,serif" font-size="14.00">425</text>
<text text-anchor="middle" x="502.48" y="-240.68" font-family="Times,serif" font-size="14.00">786</text>
</g>
<!-- 123405786&#45;&gt;103425786 -->
<g id="edge12" class="edge">
<title>123405786&#45;&gt;103425786</title>
<path fill="none" stroke="black" d="M613.13,-346.5C591.85,-329.94 562.9,-307.4 539.95,-289.54"/>
<polygon fill="black" stroke="black" points="541.83,-286.57 531.79,-283.19 537.53,-292.1 541.83,-286.57"/>
</g>
<!-- 123485706 -->
<g id="node17" class="node">
<title>123485706</title>
<ellipse fill="none" stroke="black" cx="642.48" cy="-259.38" rx="37.45" ry="37.45"/>
<text text-anchor="middle" x="642.48" y="-270.68" font-family="Times,serif" font-size="14.00">123</text>
<text text-anchor="middle" x="642.48" y="-255.68" font-family="Times,serif" font-size="14.00">485</text>
<text text-anchor="middle" x="642.48" y="-240.68" font-family="Times,serif" font-size="14.00">706</text>
</g>
<!-- 123405786&#45;&gt;123485706 -->
<g id="edge13" class="edge">
<title>123405786&#45;&gt;123485706</title>
<path fill="none" stroke="black" d="M642.48,-332.75C642.48,-324.58 642.48,-315.8 642.48,-307.27"/>
<polygon fill="black" stroke="black" points="645.98,-307.06 642.48,-297.06 638.98,-307.06 645.98,-307.06"/>
</g>
<!-- 123045786 -->
<g id="node22" class="node">
<title>123045786</title>
<ellipse fill="none" stroke="black" cx="781.48" cy="-259.38" rx="37.45" ry="37.45"/>
<text text-anchor="middle" x="781.48" y="-270.68" font-family="Times,serif" font-size="14.00">123</text>
<text text-anchor="middle" x="781.48" y="-255.68" font-family="Times,serif" font-size="14.00">045</text>
<text text-anchor="middle" x="781.48" y="-240.68" font-family="Times,serif" font-size="14.00">786</text>
</g>
<!-- 123405786&#45;&gt;123045786 -->
<g id="edge14" class="edge">
<title>123405786&#45;&gt;123045786</title>
<path fill="none" stroke="black" d="M671.62,-346.5C692.74,-329.94 721.49,-307.4 744.28,-289.54"/>
<polygon fill="black" stroke="black" points="746.66,-292.12 752.38,-283.19 742.35,-286.61 746.66,-292.12"/>
</g>
<!-- 130425786 -->
<g id="node13" class="node">
<title>130425786</title>
<ellipse fill="none" stroke="black" cx="409.48" cy="-148.43" rx="37.45" ry="37.45"/>
<text text-anchor="middle" x="409.48" y="-159.73" font-family="Times,serif" font-size="14.00">130</text>
<text text-anchor="middle" x="409.48" y="-144.73" font-family="Times,serif" font-size="14.00">425</text>
<text text-anchor="middle" x="409.48" y="-129.73" font-family="Times,serif" font-size="14.00">786</text>
</g>
<!-- 103425786&#45;&gt;130425786 -->
<g id="edge15" class="edge">
<title>103425786&#45;&gt;130425786</title>
<path fill="none" stroke="black" d="M478.53,-230.33C466.81,-216.6 452.58,-199.92 440.08,-185.28"/>
<polygon fill="black" stroke="black" points="442.5,-182.73 433.35,-177.39 437.18,-187.27 442.5,-182.73"/>
</g>
<!-- 013425786 -->
<g id="node15" class="node">
<title>013425786</title>
<ellipse fill="none" stroke="black" cx="502.48" cy="-148.43" rx="37.45" ry="37.45"/>
<text text-anchor="middle" x="502.48" y="-159.73" font-family="Times,serif" font-size="14.00">013</text>
<text text-anchor="middle" x="502.48" y="-144.73" font-family="Times,serif" font-size="14.00">425</text>
<text text-anchor="middle" x="502.48" y="-129.73" font-family="Times,serif" font-size="14.00">786</text>
</g>
<!-- 103425786&#45;&gt;013425786 -->
<g id="edge16" class="edge">
<title>103425786&#45;&gt;013425786</title>
<path fill="none" stroke="black" d="M502.48,-221.8C502.48,-213.63 502.48,-204.85 502.48,-196.32"/>
<polygon fill="black" stroke="black" points="505.98,-196.1 502.48,-186.1 498.98,-196.1 505.98,-196.1"/>
</g>
<!-- 135420786 -->
<g id="node14" class="node">
<title>135420786</title>
<ellipse fill="none" stroke="black" cx="409.48" cy="-37.48" rx="37.45" ry="37.45"/>
<text text-anchor="middle" x="409.48" y="-48.78" font-family="Times,serif" font-size="14.00">135</text>
<text text-anchor="middle" x="409.48" y="-33.78" font-family="Times,serif" font-size="14.00">420</text>
<text text-anchor="middle" x="409.48" y="-18.78" font-family="Times,serif" font-size="14.00">786</text>
</g>
<!-- 130425786&#45;&gt;135420786 -->
<g id="edge17" class="edge">
<title>130425786&#45;&gt;135420786</title>
<path fill="none" stroke="black" d="M409.48,-110.85C409.48,-102.67 409.48,-93.89 409.48,-85.37"/>
<polygon fill="black" stroke="black" points="412.98,-85.15 409.48,-75.15 405.98,-85.15 412.98,-85.15"/>
</g>
<!-- 413025786 -->
<g id="node16" class="node">
<title>413025786</title>
<ellipse fill="none" stroke="black" cx="502.48" cy="-37.48" rx="37.45" ry="37.45"/>
<text text-anchor="middle" x="502.48" y="-48.78" font-family="Times,serif" font-size="14.00">413</text>
<text text-anchor="middle" x="502.48" y="-33.78" font-family="Times,serif" font-size="14.00">025</text>
<text text-anchor="middle" x="502.48" y="-18.78" font-family="Times,serif" font-size="14.00">786</text>
</g>
<!-- 013425786&#45;&gt;413025786 -->
<g id="edge18" class="edge">
<title>013425786&#45;&gt;413025786</title>
<path fill="none" stroke="black" d="M502.48,-110.85C502.48,-102.67 502.48,-93.89 502.48,-85.37"/>
<polygon fill="black" stroke="black" points="505.98,-85.15 502.48,-75.15 498.98,-85.15 505.98,-85.15"/>
</g>
<!-- 123485760 -->
<g id="node18" class="node">
<title>123485760</title>
<ellipse fill="none" stroke="black" cx="595.48" cy="-148.43" rx="37.45" ry="37.45"/>
<text text-anchor="middle" x="595.48" y="-159.73" font-family="Times,serif" font-size="14.00">123</text>
<text text-anchor="middle" x="595.48" y="-144.73" font-family="Times,serif" font-size="14.00">485</text>
<text text-anchor="middle" x="595.48" y="-129.73" font-family="Times,serif" font-size="14.00">760</text>
</g>
<!-- 123485706&#45;&gt;123485760 -->
<g id="edge19" class="edge">
<title>123485706&#45;&gt;123485760</title>
<path fill="none" stroke="black" d="M627.99,-224.8C623.57,-214.55 618.64,-203.14 613.99,-192.35"/>
<polygon fill="black" stroke="black" points="617.17,-190.88 609.99,-183.09 610.74,-193.65 617.17,-190.88"/>
</g>
<!-- 123485076 -->
<g id="node20" class="node">
<title>123485076</title>
<ellipse fill="none" stroke="black" cx="688.48" cy="-148.43" rx="37.45" ry="37.45"/>
<text text-anchor="middle" x="688.48" y="-159.73" font-family="Times,serif" font-size="14.00">123</text>
<text text-anchor="middle" x="688.48" y="-144.73" font-family="Times,serif" font-size="14.00">485</text>
<text text-anchor="middle" x="688.48" y="-129.73" font-family="Times,serif" font-size="14.00">076</text>
</g>
<!-- 123485706&#45;&gt;123485076 -->
<g id="edge20" class="edge">
<title>123485706&#45;&gt;123485076</title>
<path fill="none" stroke="black" d="M656.78,-224.51C661.02,-214.46 665.72,-203.32 670.18,-192.77"/>
<polygon fill="black" stroke="black" points="673.52,-193.86 674.18,-183.29 667.07,-191.14 673.52,-193.86"/>
</g>
<!-- 123480765 -->
<g id="node19" class="node">
<title>123480765</title>
<ellipse fill="none" stroke="black" cx="595.48" cy="-37.48" rx="37.45" ry="37.45"/>
<text text-anchor="middle" x="595.48" y="-48.78" font-family="Times,serif" font-size="14.00">123</text>
<text text-anchor="middle" x="595.48" y="-33.78" font-family="Times,serif" font-size="14.00">480</text>
<text text-anchor="middle" x="595.48" y="-18.78" font-family="Times,serif" font-size="14.00">765</text>
</g>
<!-- 123485760&#45;&gt;123480765 -->
<g id="edge21" class="edge">
<title>123485760&#45;&gt;123480765</title>
<path fill="none" stroke="black" d="M595.48,-110.85C595.48,-102.67 595.48,-93.89 595.48,-85.37"/>
<polygon fill="black" stroke="black" points="598.98,-85.15 595.48,-75.15 591.98,-85.15 598.98,-85.15"/>
</g>
<!-- 123085476 -->
<g id="node21" class="node">
<title>123085476</title>
<ellipse fill="none" stroke="black" cx="688.48" cy="-37.48" rx="37.45" ry="37.45"/>
<text text-anchor="middle" x="688.48" y="-48.78" font-family="Times,serif" font-size="14.00">123</text>
<text text-anchor="middle" x="688.48" y="-33.78" font-family="Times,serif" font-size="14.00">085</text>
<text text-anchor="middle" x="688.48" y="-18.78" font-family="Times,serif" font-size="14.00">476</text>
</g>
<!-- 123485076&#45;&gt;123085476 -->
<g id="edge22" class="edge">
<title>123485076&#45;&gt;123085476</title>
<path fill="none" stroke="black" d="M688.48,-110.85C688.48,-102.67 688.48,-93.89 688.48,-85.37"/>
<polygon fill="black" stroke="black" points="691.98,-85.15 688.48,-75.15 684.98,-85.15 691.98,-85.15"/>
</g>
<!-- 023145786 -->
<g id="node23" class="node">
<title>023145786</title>
<ellipse fill="none" stroke="black" cx="781.48" cy="-148.43" rx="37.45" ry="37.45"/>
<text text-anchor="middle" x="781.48" y="-159.73" font-family="Times,serif" font-size="14.00">023</text>
<text text-anchor="middle" x="781.48" y="-144.73" font-family="Times,serif" font-size="14.00">145</text>
<text text-anchor="middle" x="781.48" y="-129.73" font-family="Times,serif" font-size="14.00">786</text>
</g>
<!-- 123045786&#45;&gt;023145786 -->
<g id="edge23" class="edge">
<title>123045786&#45;&gt;023145786</title>
<path fill="none" stroke="black" d="M781.48,-221.8C781.48,-213.63 781.48,-204.85 781.48,-196.32"/>
<polygon fill="black" stroke="black" points="784.98,-196.1 781.48,-186.1 777.98,-196.1 784.98,-196.1"/>
</g>
<!-- 123745086 -->
<g id="node25" class="node">
<title>123745086</title>
<ellipse fill="none" stroke="black" cx="874.48" cy="-148.43" rx="37.45" ry="37.45"/>
<text text-anchor="middle" x="874.48" y="-159.73" font-family="Times,serif" font-size="14.00">123</text>
<text text-anchor="middle" x="874.48" y="-144.73" font-family="Times,serif" font-size="14.00">745</text>
<text text-anchor="middle" x="874.48" y="-129.73" font-family="Times,serif" font-size="14.00">086</text>
</g>
<!-- 123045786&#45;&gt;123745086 -->
<g id="edge24" class="edge">
<title>123045786&#45;&gt;123745086</title>
<path fill="none" stroke="black" d="M805.43,-230.33C817.14,-216.6 831.38,-199.92 843.87,-185.28"/>
<polygon fill="black" stroke="black" points="846.78,-187.27 850.61,-177.39 841.45,-182.73 846.78,-187.27"/>
</g>
<!-- 203145786 -->
<g id="node24" class="node">
<title>203145786</title>
<ellipse fill="none" stroke="black" cx="781.48" cy="-37.48" rx="37.45" ry="37.45"/>
<text text-anchor="middle" x="781.48" y="-48.78" font-family="Times,serif" font-size="14.00">203</text>
<text text-anchor="middle" x="781.48" y="-33.78" font-family="Times,serif" font-size="14.00">145</text>
<text text-anchor="middle" x="781.48" y="-18.78" font-family="Times,serif" font-size="14.00">786</text>
</g>
<!-- 023145786&#45;&gt;203145786 -->
<g id="edge25" class="edge">
<title>023145786&#45;&gt;203145786</title>
<path fill="none" stroke="black" d="M781.48,-110.85C781.48,-102.67 781.48,-93.89 781.48,-85.37"/>
<polygon fill="black" stroke="black" points="784.98,-85.15 781.48,-75.15 777.98,-85.15 784.98,-85.15"/>
</g>
<!-- 123745806 -->
<g id="node26" class="node">
<title>123745806</title>
<ellipse fill="none" stroke="black" cx="874.48" cy="-37.48" rx="37.45" ry="37.45"/>
<text text-anchor="middle" x="874.48" y="-48.78" font-family="Times,serif" font-size="14.00">123</text>
<text text-anchor="middle" x="874.48" y="-33.78" font-family="Times,serif" font-size="14.00">745</text>
<text text-anchor="middle" x="874.48" y="-18.78" font-family="Times,serif" font-size="14.00">806</text>
</g>
<!-- 123745086&#45;&gt;123745806 -->
<g id="edge26" class="edge">
<title>123745086&#45;&gt;123745806</title>
<path fill="none" stroke="black" d="M874.48,-110.85C874.48,-102.67 874.48,-93.89 874.48,-85.37"/>
<polygon fill="black" stroke="black" points="877.98,-85.15 874.48,-75.15 870.98,-85.15 877.98,-85.15"/>
</g>
<!-- 123406758 -->
<g id="node28" class="node">
<title>123406758</title>
<ellipse fill="none" stroke="black" cx="1199.48" cy="-370.34" rx="37.45" ry="37.45"/>
<text text-anchor="middle" x="1199.48" y="-381.64" font-family="Times,serif" font-size="14.00">123</text>
<text text-anchor="middle" x="1199.48" y="-366.64" font-family="Times,serif" font-size="14.00">406</text>
<text text-anchor="middle" x="1199.48" y="-351.64" font-family="Times,serif" font-size="14.00">758</text>
</g>
<!-- 123456708&#45;&gt;123406758 -->
<g id="edge27" class="edge">
<title>123456708&#45;&gt;123406758</title>
<path fill="none" stroke="black" d="M1199.48,-443.71C1199.48,-435.53 1199.48,-426.75 1199.48,-418.23"/>
<polygon fill="black" stroke="black" points="1202.98,-418.01 1199.48,-408.01 1195.98,-418.01 1202.98,-418.01"/>
</g>
<!-- 123456078 -->
<g id="node44" class="node">
<title>123456078</title>
<ellipse fill="none" stroke="black" cx="1431.48" cy="-370.34" rx="37.45" ry="37.45"/>
<text text-anchor="middle" x="1431.48" y="-381.64" font-family="Times,serif" font-size="14.00">123</text>
<text text-anchor="middle" x="1431.48" y="-366.64" font-family="Times,serif" font-size="14.00">456</text>
<text text-anchor="middle" x="1431.48" y="-351.64" font-family="Times,serif" font-size="14.00">078</text>
</g>
<!-- 123456708&#45;&gt;123456078 -->
<g id="edge28" class="edge">
<title>123456708&#45;&gt;123456078</title>
<path fill="none" stroke="black" d="M1233.21,-464.45C1274.28,-445.16 1343.68,-412.57 1388.52,-391.51"/>
<polygon fill="black" stroke="black" points="1390.14,-394.62 1397.7,-387.2 1387.16,-388.28 1390.14,-394.62"/>
</g>
<!-- 103426758 -->
<g id="node29" class="node">
<title>103426758</title>
<ellipse fill="none" stroke="black" cx="1060.48" cy="-259.38" rx="37.45" ry="37.45"/>
<text text-anchor="middle" x="1060.48" y="-270.68" font-family="Times,serif" font-size="14.00">103</text>
<text text-anchor="middle" x="1060.48" y="-255.68" font-family="Times,serif" font-size="14.00">426</text>
<text text-anchor="middle" x="1060.48" y="-240.68" font-family="Times,serif" font-size="14.00">758</text>
</g>
<!-- 123406758&#45;&gt;103426758 -->
<g id="edge29" class="edge">
<title>123406758&#45;&gt;103426758</title>
<path fill="none" stroke="black" d="M1170.34,-346.5C1149.21,-329.94 1120.46,-307.4 1097.68,-289.54"/>
<polygon fill="black" stroke="black" points="1099.61,-286.61 1089.58,-283.19 1095.29,-292.12 1099.61,-286.61"/>
</g>
<!-- 123460758 -->
<g id="node34" class="node">
<title>123460758</title>
<ellipse fill="none" stroke="black" cx="1199.48" cy="-259.38" rx="37.45" ry="37.45"/>
<text text-anchor="middle" x="1199.48" y="-270.68" font-family="Times,serif" font-size="14.00">123</text>
<text text-anchor="middle" x="1199.48" y="-255.68" font-family="Times,serif" font-size="14.00">460</text>
<text text-anchor="middle" x="1199.48" y="-240.68" font-family="Times,serif" font-size="14.00">758</text>
</g>
<!-- 123406758&#45;&gt;123460758 -->
<g id="edge30" class="edge">
<title>123406758&#45;&gt;123460758</title>
<path fill="none" stroke="black" d="M1199.48,-332.75C1199.48,-324.58 1199.48,-315.8 1199.48,-307.27"/>
<polygon fill="black" stroke="black" points="1202.98,-307.06 1199.48,-297.06 1195.98,-307.06 1202.98,-307.06"/>
</g>
<!-- 123046758 -->
<g id="node39" class="node">
<title>123046758</title>
<ellipse fill="none" stroke="black" cx="1339.48" cy="-259.38" rx="37.45" ry="37.45"/>
<text text-anchor="middle" x="1339.48" y="-270.68" font-family="Times,serif" font-size="14.00">123</text>
<text text-anchor="middle" x="1339.48" y="-255.68" font-family="Times,serif" font-size="14.00">046</text>
<text text-anchor="middle" x="1339.48" y="-240.68" font-family="Times,serif" font-size="14.00">758</text>
</g>
<!-- 123406758&#45;&gt;123046758 -->
<g id="edge31" class="edge">
<title>123406758&#45;&gt;123046758</title>
<path fill="none" stroke="black" d="M1228.83,-346.5C1250.11,-329.94 1279.06,-307.4 1302.01,-289.54"/>
<polygon fill="black" stroke="black" points="1304.42,-292.1 1310.17,-283.19 1300.13,-286.57 1304.42,-292.1"/>
</g>
<!-- 130426758 -->
<g id="node30" class="node">
<title>130426758</title>
<ellipse fill="none" stroke="black" cx="967.48" cy="-148.43" rx="37.45" ry="37.45"/>
<text text-anchor="middle" x="967.48" y="-159.73" font-family="Times,serif" font-size="14.00">130</text>
<text text-anchor="middle" x="967.48" y="-144.73" font-family="Times,serif" font-size="14.00">426</text>
<text text-anchor="middle" x="967.48" y="-129.73" font-family="Times,serif" font-size="14.00">758</text>
</g>
<!-- 103426758&#45;&gt;130426758 -->
<g id="edge32" class="edge">
<title>103426758&#45;&gt;130426758</title>
<path fill="none" stroke="black" d="M1036.53,-230.33C1024.81,-216.6 1010.58,-199.92 998.08,-185.28"/>
<polygon fill="black" stroke="black" points="1000.5,-182.73 991.35,-177.39 995.18,-187.27 1000.5,-182.73"/>
</g>
<!-- 013426758 -->
<g id="node32" class="node">
<title>013426758</title>
<ellipse fill="none" stroke="black" cx="1060.48" cy="-148.43" rx="37.45" ry="37.45"/>
<text text-anchor="middle" x="1060.48" y="-159.73" font-family="Times,serif" font-size="14.00">013</text>
<text text-anchor="middle" x="1060.48" y="-144.73" font-family="Times,serif" font-size="14.00">426</text>
<text text-anchor="middle" x="1060.48" y="-129.73" font-family="Times,serif" font-size="14.00">758</text>
</g>
<!-- 103426758&#45;&gt;013426758 -->
<g id="edge33" class="edge">
<title>103426758&#45;&gt;013426758</title>
<path fill="none" stroke="black" d="M1060.48,-221.8C1060.48,-213.63 1060.48,-204.85 1060.48,-196.32"/>
<polygon fill="black" stroke="black" points="1063.98,-196.1 1060.48,-186.1 1056.98,-196.1 1063.98,-196.1"/>
</g>
<!-- 136420758 -->
<g id="node31" class="node">
<title>136420758</title>
<ellipse fill="none" stroke="black" cx="967.48" cy="-37.48" rx="37.45" ry="37.45"/>
<text text-anchor="middle" x="967.48" y="-48.78" font-family="Times,serif" font-size="14.00">136</text>
<text text-anchor="middle" x="967.48" y="-33.78" font-family="Times,serif" font-size="14.00">420</text>
<text text-anchor="middle" x="967.48" y="-18.78" font-family="Times,serif" font-size="14.00">758</text>
</g>
<!-- 130426758&#45;&gt;136420758 -->
<g id="edge34" class="edge">
<title>130426758&#45;&gt;136420758</title>
<path fill="none" stroke="black" d="M967.48,-110.85C967.48,-102.67 967.48,-93.89 967.48,-85.37"/>
<polygon fill="black" stroke="black" points="970.98,-85.15 967.48,-75.15 963.98,-85.15 970.98,-85.15"/>
</g>
<!-- 413026758 -->
<g id="node33" class="node">
<title>413026758</title>
<ellipse fill="none" stroke="black" cx="1060.48" cy="-37.48" rx="37.45" ry="37.45"/>
<text text-anchor="middle" x="1060.48" y="-48.78" font-family="Times,serif" font-size="14.00">413</text>
<text text-anchor="middle" x="1060.48" y="-33.78" font-family="Times,serif" font-size="14.00">026</text>
<text text-anchor="middle" x="1060.48" y="-18.78" font-family="Times,serif" font-size="14.00">758</text>
</g>
<!-- 013426758&#45;&gt;413026758 -->
<g id="edge35" class="edge">
<title>013426758&#45;&gt;413026758</title>
<path fill="none" stroke="black" d="M1060.48,-110.85C1060.48,-102.67 1060.48,-93.89 1060.48,-85.37"/>
<polygon fill="black" stroke="black" points="1063.98,-85.15 1060.48,-75.15 1056.98,-85.15 1063.98,-85.15"/>
</g>
<!-- 120463758 -->
<g id="node35" class="node">
<title>120463758</title>
<ellipse fill="none" stroke="black" cx="1153.48" cy="-148.43" rx="37.45" ry="37.45"/>
<text text-anchor="middle" x="1153.48" y="-159.73" font-family="Times,serif" font-size="14.00">120</text>
<text text-anchor="middle" x="1153.48" y="-144.73" font-family="Times,serif" font-size="14.00">463</text>
<text text-anchor="middle" x="1153.48" y="-129.73" font-family="Times,serif" font-size="14.00">758</text>
</g>
<!-- 123460758&#45;&gt;120463758 -->
<g id="edge36" class="edge">
<title>123460758&#45;&gt;120463758</title>
<path fill="none" stroke="black" d="M1185.17,-224.51C1180.93,-214.46 1176.23,-203.32 1171.77,-192.77"/>
<polygon fill="black" stroke="black" points="1174.88,-191.14 1167.77,-183.29 1168.44,-193.86 1174.88,-191.14"/>
</g>
<!-- 123468750 -->
<g id="node37" class="node">
<title>123468750</title>
<ellipse fill="none" stroke="black" cx="1246.48" cy="-148.43" rx="37.45" ry="37.45"/>
<text text-anchor="middle" x="1246.48" y="-159.73" font-family="Times,serif" font-size="14.00">123</text>
<text text-anchor="middle" x="1246.48" y="-144.73" font-family="Times,serif" font-size="14.00">468</text>
<text text-anchor="middle" x="1246.48" y="-129.73" font-family="Times,serif" font-size="14.00">750</text>
</g>
<!-- 123460758&#45;&gt;123468750 -->
<g id="edge37" class="edge">
<title>123460758&#45;&gt;123468750</title>
<path fill="none" stroke="black" d="M1213.96,-224.8C1218.38,-214.55 1223.31,-203.14 1227.96,-192.35"/>
<polygon fill="black" stroke="black" points="1231.21,-193.65 1231.96,-183.09 1224.78,-190.88 1231.21,-193.65"/>
</g>
<!-- 102463758 -->
<g id="node36" class="node">
<title>102463758</title>
<ellipse fill="none" stroke="black" cx="1153.48" cy="-37.48" rx="37.45" ry="37.45"/>
<text text-anchor="middle" x="1153.48" y="-48.78" font-family="Times,serif" font-size="14.00">102</text>
<text text-anchor="middle" x="1153.48" y="-33.78" font-family="Times,serif" font-size="14.00">463</text>
<text text-anchor="middle" x="1153.48" y="-18.78" font-family="Times,serif" font-size="14.00">758</text>
</g>
<!-- 120463758&#45;&gt;102463758 -->
<g id="edge38" class="edge">
<title>120463758&#45;&gt;102463758</title>
<path fill="none" stroke="black" d="M1153.48,-110.85C1153.48,-102.67 1153.48,-93.89 1153.48,-85.37"/>
<polygon fill="black" stroke="black" points="1156.98,-85.15 1153.48,-75.15 1149.98,-85.15 1156.98,-85.15"/>
</g>
<!-- 123468705 -->
<g id="node38" class="node">
<title>123468705</title>
<ellipse fill="none" stroke="black" cx="1246.48" cy="-37.48" rx="37.45" ry="37.45"/>
<text text-anchor="middle" x="1246.48" y="-48.78" font-family="Times,serif" font-size="14.00">123</text>
<text text-anchor="middle" x="1246.48" y="-33.78" font-family="Times,serif" font-size="14.00">468</text>
<text text-anchor="middle" x="1246.48" y="-18.78" font-family="Times,serif" font-size="14.00">705</text>
</g>
<!-- 123468750&#45;&gt;123468705 -->
<g id="edge39" class="edge">
<title>123468750&#45;&gt;123468705</title>
<path fill="none" stroke="black" d="M1246.48,-110.85C1246.48,-102.67 1246.48,-93.89 1246.48,-85.37"/>
<polygon fill="black" stroke="black" points="1249.98,-85.15 1246.48,-75.15 1242.98,-85.15 1249.98,-85.15"/>
</g>
<!-- 023146758 -->
<g id="node40" class="node">
<title>023146758</title>
<ellipse fill="none" stroke="black" cx="1339.48" cy="-148.43" rx="37.45" ry="37.45"/>
<text text-anchor="middle" x="1339.48" y="-159.73" font-family="Times,serif" font-size="14.00">023</text>
<text text-anchor="middle" x="1339.48" y="-144.73" font-family="Times,serif" font-size="14.00">146</text>
<text text-anchor="middle" x="1339.48" y="-129.73" font-family="Times,serif" font-size="14.00">758</text>
</g>
<!-- 123046758&#45;&gt;023146758 -->
<g id="edge40" class="edge">
<title>123046758&#45;&gt;023146758</title>
<path fill="none" stroke="black" d="M1339.48,-221.8C1339.48,-213.63 1339.48,-204.85 1339.48,-196.32"/>
<polygon fill="black" stroke="black" points="1342.98,-196.1 1339.48,-186.1 1335.98,-196.1 1342.98,-196.1"/>
</g>
<!-- 123746058 -->
<g id="node42" class="node">
<title>123746058</title>
<ellipse fill="none" stroke="black" cx="1432.48" cy="-148.43" rx="37.45" ry="37.45"/>
<text text-anchor="middle" x="1432.48" y="-159.73" font-family="Times,serif" font-size="14.00">123</text>
<text text-anchor="middle" x="1432.48" y="-144.73" font-family="Times,serif" font-size="14.00">746</text>
<text text-anchor="middle" x="1432.48" y="-129.73" font-family="Times,serif" font-size="14.00">058</text>
</g>
<!-- 123046758&#45;&gt;123746058 -->
<g id="edge41" class="edge">
<title>123046758&#45;&gt;123746058</title>
<path fill="none" stroke="black" d="M1363.43,-230.33C1375.14,-216.6 1389.38,-199.92 1401.87,-185.28"/>
<polygon fill="black" stroke="black" points="1404.78,-187.27 1408.61,-177.39 1399.45,-182.73 1404.78,-187.27"/>
</g>
<!-- 203146758 -->
<g id="node41" class="node">
<title>203146758</title>
<ellipse fill="none" stroke="black" cx="1339.48" cy="-37.48" rx="37.45" ry="37.45"/>
<text text-anchor="middle" x="1339.48" y="-48.78" font-family="Times,serif" font-size="14.00">203</text>
<text text-anchor="middle" x="1339.48" y="-33.78" font-family="Times,serif" font-size="14.00">146</text>
<text text-anchor="middle" x="1339.48" y="-18.78" font-family="Times,serif" font-size="14.00">758</text>
</g>
<!-- 023146758&#45;&gt;203146758 -->
<g id="edge42" class="edge">
<title>023146758&#45;&gt;203146758</title>
<path fill="none" stroke="black" d="M1339.48,-110.85C1339.48,-102.67 1339.48,-93.89 1339.48,-85.37"/>
<polygon fill="black" stroke="black" points="1342.98,-85.15 1339.48,-75.15 1335.98,-85.15 1342.98,-85.15"/>
</g>
<!-- 123746508 -->
<g id="node43" class="node">
<title>123746508</title>
<ellipse fill="none" stroke="black" cx="1432.48" cy="-37.48" rx="37.45" ry="37.45"/>
<text text-anchor="middle" x="1432.48" y="-48.78" font-family="Times,serif" font-size="14.00">123</text>
<text text-anchor="middle" x="1432.48" y="-33.78" font-family="Times,serif" font-size="14.00">746</text>
<text text-anchor="middle" x="1432.48" y="-18.78" font-family="Times,serif" font-size="14.00">508</text>
</g>
<!-- 123746058&#45;&gt;123746508 -->
<g id="edge43" class="edge">
<title>123746058&#45;&gt;123746508</title>
<path fill="none" stroke="black" d="M1432.48,-110.85C1432.48,-102.67 1432.48,-93.89 1432.48,-85.37"/>
<polygon fill="black" stroke="black" points="1435.98,-85.15 1432.48,-75.15 1428.98,-85.15 1435.98,-85.15"/>
</g>
<!-- 123056478 -->
<g id="node45" class="node">
<title>123056478</title>
<ellipse fill="none" stroke="black" cx="1525.48" cy="-259.38" rx="37.45" ry="37.45"/>
<text text-anchor="middle" x="1525.48" y="-270.68" font-family="Times,serif" font-size="14.00">123</text>
<text text-anchor="middle" x="1525.48" y="-255.68" font-family="Times,serif" font-size="14.00">056</text>
<text text-anchor="middle" x="1525.48" y="-240.68" font-family="Times,serif" font-size="14.00">478</text>
</g>
<!-- 123456078&#45;&gt;123056478 -->
<g id="edge44" class="edge">
<title>123456078&#45;&gt;123056478</title>
<path fill="none" stroke="black" d="M1455.68,-341.28C1467.53,-327.55 1481.91,-310.88 1494.54,-296.24"/>
<polygon fill="black" stroke="black" points="1497.47,-298.2 1501.35,-288.35 1492.17,-293.63 1497.47,-298.2"/>
</g>
<!-- 023156478 -->
<g id="node46" class="node">
<title>023156478</title>
<ellipse fill="none" stroke="black" cx="1525.48" cy="-148.43" rx="37.45" ry="37.45"/>
<text text-anchor="middle" x="1525.48" y="-159.73" font-family="Times,serif" font-size="14.00">023</text>
<text text-anchor="middle" x="1525.48" y="-144.73" font-family="Times,serif" font-size="14.00">156</text>
<text text-anchor="middle" x="1525.48" y="-129.73" font-family="Times,serif" font-size="14.00">478</text>
</g>
<!-- 123056478&#45;&gt;023156478 -->
<g id="edge45" class="edge">
<title>123056478&#45;&gt;023156478</title>
<path fill="none" stroke="black" d="M1525.48,-221.8C1525.48,-213.63 1525.48,-204.85 1525.48,-196.32"/>
<polygon fill="black" stroke="black" points="1528.98,-196.1 1525.48,-186.1 1521.98,-196.1 1528.98,-196.1"/>
</g>
<!-- 123506478 -->
<g id="node48" class="node">
<title>123506478</title>
<ellipse fill="none" stroke="black" cx="1664.48" cy="-148.43" rx="37.45" ry="37.45"/>
<text text-anchor="middle" x="1664.48" y="-159.73" font-family="Times,serif" font-size="14.00">123</text>
<text text-anchor="middle" x="1664.48" y="-144.73" font-family="Times,serif" font-size="14.00">506</text>
<text text-anchor="middle" x="1664.48" y="-129.73" font-family="Times,serif" font-size="14.00">478</text>
</g>
<!-- 123056478&#45;&gt;123506478 -->
<g id="edge46" class="edge">
<title>123056478&#45;&gt;123506478</title>
<path fill="none" stroke="black" d="M1554.62,-235.54C1575.74,-218.98 1604.49,-196.45 1627.28,-178.59"/>
<polygon fill="black" stroke="black" points="1629.66,-181.16 1635.38,-172.24 1625.35,-175.65 1629.66,-181.16"/>
</g>
<!-- 203156478 -->
<g id="node47" class="node">
<title>203156478</title>
<ellipse fill="none" stroke="black" cx="1525.48" cy="-37.48" rx="37.45" ry="37.45"/>
<text text-anchor="middle" x="1525.48" y="-48.78" font-family="Times,serif" font-size="14.00">203</text>
<text text-anchor="middle" x="1525.48" y="-33.78" font-family="Times,serif" font-size="14.00">156</text>
<text text-anchor="middle" x="1525.48" y="-18.78" font-family="Times,serif" font-size="14.00">478</text>
</g>
<!-- 023156478&#45;&gt;203156478 -->
<g id="edge47" class="edge">
<title>023156478&#45;&gt;203156478</title>
<path fill="none" stroke="black" d="M1525.48,-110.85C1525.48,-102.67 1525.48,-93.89 1525.48,-85.37"/>
<polygon fill="black" stroke="black" points="1528.98,-85.15 1525.48,-75.15 1521.98,-85.15 1528.98,-85.15"/>
</g>
<!-- 103526478 -->
<g id="node49" class="node">
<title>103526478</title>
<ellipse fill="none" stroke="black" cx="1618.48" cy="-37.48" rx="37.45" ry="37.45"/>
<text text-anchor="middle" x="1618.48" y="-48.78" font-family="Times,serif" font-size="14.00">103</text>
<text text-anchor="middle" x="1618.48" y="-33.78" font-family="Times,serif" font-size="14.00">526</text>
<text text-anchor="middle" x="1618.48" y="-18.78" font-family="Times,serif" font-size="14.00">478</text>
</g>
<!-- 123506478&#45;&gt;103526478 -->
<g id="edge48" class="edge">
<title>123506478&#45;&gt;103526478</title>
<path fill="none" stroke="black" d="M1650.17,-113.55C1645.93,-103.51 1641.23,-92.37 1636.77,-81.81"/>
<polygon fill="black" stroke="black" points="1639.88,-80.18 1632.77,-72.33 1633.44,-82.91 1639.88,-80.18"/>
</g>
<!-- 123576408 -->
<g id="node50" class="node">
<title>123576408</title>
<ellipse fill="none" stroke="black" cx="1711.48" cy="-37.48" rx="37.45" ry="37.45"/>
<text text-anchor="middle" x="1711.48" y="-48.78" font-family="Times,serif" font-size="14.00">123</text>
<text text-anchor="middle" x="1711.48" y="-33.78" font-family="Times,serif" font-size="14.00">576</text>
<text text-anchor="middle" x="1711.48" y="-18.78" font-family="Times,serif" font-size="14.00">408</text>
</g>
<!-- 123506478&#45;&gt;123576408 -->
<g id="edge49" class="edge">
<title>123506478&#45;&gt;123576408</title>
<path fill="none" stroke="black" d="M1678.96,-113.85C1683.38,-103.6 1688.31,-92.18 1692.96,-81.4"/>
<polygon fill="black" stroke="black" points="1696.21,-82.7 1696.96,-72.13 1689.78,-79.93 1696.21,-82.7"/>
</g>
<!-- 123560478 -->
<g id="node51" class="node">
<title>123560478</title>
<ellipse fill="none" stroke="black" cx="1804.48" cy="-37.48" rx="37.45" ry="37.45"/>
<text text-anchor="middle" x="1804.48" y="-48.78" font-family="Times,serif" font-size="14.00">123</text>
<text text-anchor="middle" x="1804.48" y="-33.78" font-family="Times,serif" font-size="14.00">560</text>
<text text-anchor="middle" x="1804.48" y="-18.78" font-family="Times,serif" font-size="14.00">478</text>
</g>
<!-- 123506478&#45;&gt;123560478 -->
<g id="edge50" class="edge">
<title>123506478&#45;&gt;123560478</title>
<path fill="none" stroke="black" d="M1693.83,-124.59C1715.11,-108.03 1744.06,-85.5 1767.01,-67.64"/>
<polygon fill="black" stroke="black" points="1769.42,-70.19 1775.17,-61.29 1765.13,-64.67 1769.42,-70.19"/>
</g>
</g>
</svg>
