<?xml version="1.0" encoding="UTF-8" standalone="no"?>
<!DOCTYPE svg PUBLIC "-//W3C//DTD SVG 1.1//EN"
 "http://www.w3.org/Graphics/SVG/1.1/DTD/svg11.dtd">
<!-- Generated by graphviz version 2.43.0 (0)
 -->
<!-- Title: tree Pages: 1 -->
<svg width="104pt" height="840pt"
 viewBox="0.00 0.00 104.17 840.00" xmlns="http://www.w3.org/2000/svg" xmlns:xlink="http://www.w3.org/1999/xlink">
<g id="graph0" class="graph" transform="scale(1 1) rotate(0) translate(4 836)">
<title>tree</title>
<polygon fill="white" stroke="transparent" points="-4,4 -4,-836 100.17,-836 100.17,4 -4,4"/>
<!-- 1111111111111111 -->
<g id="node1" class="node">
<title>1111111111111111</title>
<ellipse fill="none" stroke="black" cx="48.08" cy="-48.08" rx="48.17" ry="48.17"/>
<text text-anchor="middle" x="48.08" y="-66.88" font-family="Times,serif" font-size="14.00">1111</text>
<text text-anchor="middle" x="48.08" y="-51.88" font-family="Times,serif" font-size="14.00">1111</text>
<text text-anchor="middle" x="48.08" y="-36.88" font-family="Times,serif" font-size="14.00">1111</text>
<text text-anchor="middle" x="48.08" y="-21.88" font-family="Times,serif" font-size="14.00">1111</text>
</g>
<!-- 0011011111111111 -->
<g id="node2" class="node">
<title>0011011111111111</title>
<ellipse fill="none" stroke="black" cx="48.08" cy="-195.25" rx="48.17" ry="48.17"/>
<text text-anchor="middle" x="48.08" y="-214.05" font-family="Times,serif" font-size="14.00">0011</text>
<text text-anchor="middle" x="48.08" y="-199.05" font-family="Times,serif" font-size="14.00">0111</text>
<text text-anchor="middle" x="48.08" y="-184.05" font-family="Times,serif" font-size="14.00">1111</text>
<text text-anchor="middle" x="48.08" y="-169.05" font-family="Times,serif" font-size="14.00">1111</text>
</g>
<!-- 0011011111111111&#45;&gt;1111111111111111 -->
<g id="edge5" class="edge">
<title>0011011111111111&#45;&gt;1111111111111111</title>
<path fill="none" stroke="black" d="M48.08,-147.12C48.08,-134.19 48.08,-120.02 48.08,-106.58"/>
<polygon fill="black" stroke="black" points="51.58,-106.47 48.08,-96.47 44.58,-106.47 51.58,-106.47"/>
<text text-anchor="middle" x="65.08" y="-117.97" font-family="Times,serif" font-size="14.00">(0,0)</text>
</g>
<!-- 0000011011111111 -->
<g id="node3" class="node">
<title>0000011011111111</title>
<ellipse fill="none" stroke="black" cx="48.08" cy="-342.42" rx="48.17" ry="48.17"/>
<text text-anchor="middle" x="48.08" y="-361.22" font-family="Times,serif" font-size="14.00">0000</text>
<text text-anchor="middle" x="48.08" y="-346.22" font-family="Times,serif" font-size="14.00">0110</text>
<text text-anchor="middle" x="48.08" y="-331.22" font-family="Times,serif" font-size="14.00">1111</text>
<text text-anchor="middle" x="48.08" y="-316.22" font-family="Times,serif" font-size="14.00">1111</text>
</g>
<!-- 0000011011111111&#45;&gt;0011011111111111 -->
<g id="edge4" class="edge">
<title>0000011011111111&#45;&gt;0011011111111111</title>
<path fill="none" stroke="black" d="M48.08,-294.28C48.08,-281.35 48.08,-267.19 48.08,-253.75"/>
<polygon fill="black" stroke="black" points="51.58,-253.64 48.08,-243.64 44.58,-253.64 51.58,-253.64"/>
<text text-anchor="middle" x="65.08" y="-265.13" font-family="Times,serif" font-size="14.00">(0,3)</text>
</g>
<!-- 0000011111001110 -->
<g id="node4" class="node">
<title>0000011111001110</title>
<ellipse fill="none" stroke="black" cx="48.08" cy="-489.58" rx="48.17" ry="48.17"/>
<text text-anchor="middle" x="48.08" y="-508.38" font-family="Times,serif" font-size="14.00">0000</text>
<text text-anchor="middle" x="48.08" y="-493.38" font-family="Times,serif" font-size="14.00">0111</text>
<text text-anchor="middle" x="48.08" y="-478.38" font-family="Times,serif" font-size="14.00">1100</text>
<text text-anchor="middle" x="48.08" y="-463.38" font-family="Times,serif" font-size="14.00">1110</text>
</g>
<!-- 0000011111001110&#45;&gt;0000011011111111 -->
<g id="edge3" class="edge">
<title>0000011111001110&#45;&gt;0000011011111111</title>
<path fill="none" stroke="black" d="M48.08,-441.45C48.08,-428.52 48.08,-414.36 48.08,-400.91"/>
<polygon fill="black" stroke="black" points="51.58,-400.81 48.08,-390.81 44.58,-400.81 51.58,-400.81"/>
<text text-anchor="middle" x="65.08" y="-412.3" font-family="Times,serif" font-size="14.00">(2,3)</text>
</g>
<!-- 0000011110000000 -->
<g id="node5" class="node">
<title>0000011110000000</title>
<ellipse fill="none" stroke="black" cx="48.08" cy="-636.75" rx="48.17" ry="48.17"/>
<text text-anchor="middle" x="48.08" y="-655.55" font-family="Times,serif" font-size="14.00">0000</text>
<text text-anchor="middle" x="48.08" y="-640.55" font-family="Times,serif" font-size="14.00">0111</text>
<text text-anchor="middle" x="48.08" y="-625.55" font-family="Times,serif" font-size="14.00">1000</text>
<text text-anchor="middle" x="48.08" y="-610.55" font-family="Times,serif" font-size="14.00">0000</text>
</g>
<!-- 0000011110000000&#45;&gt;0000011111001110 -->
<g id="edge2" class="edge">
<title>0000011110000000&#45;&gt;0000011111001110</title>
<path fill="none" stroke="black" d="M48.08,-588.62C48.08,-575.69 48.08,-561.52 48.08,-548.08"/>
<polygon fill="black" stroke="black" points="51.58,-547.97 48.08,-537.97 44.58,-547.97 51.58,-547.97"/>
<text text-anchor="middle" x="65.08" y="-559.47" font-family="Times,serif" font-size="14.00">(3,1)</text>
</g>
<!-- 0000011110100111 -->
<g id="node6" class="node">
<title>0000011110100111</title>
<ellipse fill="none" stroke="black" cx="48.08" cy="-783.92" rx="48.17" ry="48.17"/>
<text text-anchor="middle" x="48.08" y="-802.72" font-family="Times,serif" font-size="14.00">0000</text>
<text text-anchor="middle" x="48.08" y="-787.72" font-family="Times,serif" font-size="14.00">0111</text>
<text text-anchor="middle" x="48.08" y="-772.72" font-family="Times,serif" font-size="14.00">1010</text>
<text text-anchor="middle" x="48.08" y="-757.72" font-family="Times,serif" font-size="14.00">0111</text>
</g>
<!-- 0000011110100111&#45;&gt;0000011110000000 -->
<g id="edge1" class="edge">
<title>0000011110100111&#45;&gt;0000011110000000</title>
<path fill="none" stroke="black" d="M48.08,-735.78C48.08,-722.85 48.08,-708.69 48.08,-695.25"/>
<polygon fill="black" stroke="black" points="51.58,-695.14 48.08,-685.14 44.58,-695.14 51.58,-695.14"/>
<text text-anchor="middle" x="65.08" y="-706.63" font-family="Times,serif" font-size="14.00">(3,2)</text>
</g>
</g>
</svg>
