<?xml version="1.0" encoding="UTF-8" standalone="no"?>
<!DOCTYPE svg PUBLIC "-//W3C//DTD SVG 1.1//EN"
 "http://www.w3.org/Graphics/SVG/1.1/DTD/svg11.dtd">
<!-- Generated by graphviz version 8.0.1 (20230327.1645)
 -->
<!-- Title: path Pages: 1 -->
<svg width="83pt" height="527pt"
 viewBox="0.00 0.00 82.95 526.77" xmlns="http://www.w3.org/2000/svg" xmlns:xlink="http://www.w3.org/1999/xlink">
<g id="graph0" class="graph" transform="scale(1 1) rotate(0) translate(4 522.77)">
<title>path</title>
<polygon fill="white" stroke="none" points="-4,4 -4,-522.77 78.95,-522.77 78.95,4 -4,4"/>
<!-- 130426758 -->
<g id="node1" class="node">
<title>130426758</title>
<ellipse fill="none" stroke="black" cx="37.48" cy="-481.29" rx="37.45" ry="37.45"/>
<text text-anchor="middle" x="37.48" y="-492.59" font-family="Times New Roman,serif" font-size="14.00">130</text>
<text text-anchor="middle" x="37.48" y="-477.59" font-family="Times New Roman,serif" font-size="14.00">426</text>
<text text-anchor="middle" x="37.48" y="-462.59" font-family="Times New Roman,serif" font-size="14.00">758</text>
</g>
<!-- 103426758 -->
<g id="node2" class="node">
<title>103426758</title>
<ellipse fill="none" stroke="black" cx="37.48" cy="-370.34" rx="37.45" ry="37.45"/>
<text text-anchor="middle" x="37.48" y="-381.64" font-family="Times New Roman,serif" font-size="14.00">103</text>
<text text-anchor="middle" x="37.48" y="-366.64" font-family="Times New Roman,serif" font-size="14.00">426</text>
<text text-anchor="middle" x="37.48" y="-351.64" font-family="Times New Roman,serif" font-size="14.00">758</text>
</g>
<!-- 130426758&#45;&gt;103426758 -->
<g id="edge1" class="edge">
<title>130426758&#45;&gt;103426758</title>
<path fill="none" stroke="black" d="M37.48,-443.4C37.48,-435.59 37.48,-427.24 37.48,-419.1"/>
<polygon fill="black" stroke="black" points="40.98,-419.19 37.48,-409.19 33.98,-419.19 40.98,-419.19"/>
</g>
<!-- 123406758 -->
<g id="node3" class="node">
<title>123406758</title>
<ellipse fill="none" stroke="black" cx="37.48" cy="-259.38" rx="37.45" ry="37.45"/>
<text text-anchor="middle" x="37.48" y="-270.68" font-family="Times New Roman,serif" font-size="14.00">123</text>
<text text-anchor="middle" x="37.48" y="-255.68" font-family="Times New Roman,serif" font-size="14.00">406</text>
<text text-anchor="middle" x="37.48" y="-240.68" font-family="Times New Roman,serif" font-size="14.00">758</text>
</g>
<!-- 103426758&#45;&gt;123406758 -->
<g id="edge2" class="edge">
<title>103426758&#45;&gt;123406758</title>
<path fill="none" stroke="black" d="M37.48,-332.45C37.48,-324.64 37.48,-316.29 37.48,-308.14"/>
<polygon fill="black" stroke="black" points="40.98,-308.23 37.48,-298.23 33.98,-308.23 40.98,-308.23"/>
</g>
<!-- 123456708 -->
<g id="node4" class="node">
<title>123456708</title>
<ellipse fill="none" stroke="black" cx="37.48" cy="-148.43" rx="37.45" ry="37.45"/>
<text text-anchor="middle" x="37.48" y="-159.73" font-family="Times New Roman,serif" font-size="14.00">123</text>
<text text-anchor="middle" x="37.48" y="-144.73" font-family="Times New Roman,serif" font-size="14.00">456</text>
<text text-anchor="middle" x="37.48" y="-129.73" font-family="Times New Roman,serif" font-size="14.00">708</text>
</g>
<!-- 123406758&#45;&gt;123456708 -->
<g id="edge3" class="edge">
<title>123406758&#45;&gt;123456708</title>
<path fill="none" stroke="black" d="M37.48,-221.5C37.48,-213.69 37.48,-205.34 37.48,-197.19"/>
<polygon fill="black" stroke="black" points="40.98,-197.28 37.48,-187.28 33.98,-197.28 40.98,-197.28"/>
</g>
<!-- 123456780 -->
<g id="node5" class="node">
<title>123456780</title>
<ellipse fill="none" stroke="black" cx="37.48" cy="-37.48" rx="37.45" ry="37.45"/>
<text text-anchor="middle" x="37.48" y="-48.78" font-family="Times New Roman,serif" font-size="14.00">123</text>
<text text-anchor="middle" x="37.48" y="-33.78" font-family="Times New Roman,serif" font-size="14.00">456</text>
<text text-anchor="middle" x="37.48" y="-18.78" font-family="Times New Roman,serif" font-size="14.00">780</text>
</g>
<!-- 123456708&#45;&gt;123456780 -->
<g id="edge4" class="edge">
<title>123456708&#45;&gt;123456780</title>
<path fill="none" stroke="black" d="M37.48,-110.54C37.48,-102.73 37.48,-94.38 37.48,-86.24"/>
<polygon fill="black" stroke="black" points="40.98,-86.33 37.48,-76.33 33.98,-86.33 40.98,-86.33"/>
</g>
</g>
</svg>
