<?xml version="1.0" encoding="UTF-8" standalone="no"?>
<!DOCTYPE svg PUBLIC "-//W3C//DTD SVG 1.1//EN"
 "http://www.w3.org/Graphics/SVG/1.1/DTD/svg11.dtd">
<!-- Generated by graphviz version 2.43.0 (0)
 -->
<!-- Title: path Pages: 1 -->
<svg width="83pt" height="2413pt"
 viewBox="0.00 0.00 82.95 2412.97" xmlns="http://www.w3.org/2000/svg" xmlns:xlink="http://www.w3.org/1999/xlink">
<g id="graph0" class="graph" transform="scale(1 1) rotate(0) translate(4 2408.97)">
<title>path</title>
<polygon fill="white" stroke="transparent" points="-4,4 -4,-2408.97 78.95,-2408.97 78.95,4 -4,4"/>
<!-- 132587604 -->
<g id="node1" class="node">
<title>132587604</title>
<ellipse fill="none" stroke="black" cx="37.48" cy="-2367.5" rx="37.45" ry="37.45"/>
<text text-anchor="middle" x="37.48" y="-2378.8" font-family="Times,serif" font-size="14.00">132</text>
<text text-anchor="middle" x="37.48" y="-2363.8" font-family="Times,serif" font-size="14.00">587</text>
<text text-anchor="middle" x="37.48" y="-2348.8" font-family="Times,serif" font-size="14.00">604</text>
</g>
<!-- 132587640 -->
<g id="node2" class="node">
<title>132587640</title>
<ellipse fill="none" stroke="black" cx="37.48" cy="-2256.54" rx="37.45" ry="37.45"/>
<text text-anchor="middle" x="37.48" y="-2267.84" font-family="Times,serif" font-size="14.00">132</text>
<text text-anchor="middle" x="37.48" y="-2252.84" font-family="Times,serif" font-size="14.00">587</text>
<text text-anchor="middle" x="37.48" y="-2237.84" font-family="Times,serif" font-size="14.00">640</text>
</g>
<!-- 132587604&#45;&gt;132587640 -->
<g id="edge1" class="edge">
<title>132587604&#45;&gt;132587640</title>
<path fill="none" stroke="black" d="M37.48,-2329.91C37.48,-2321.74 37.48,-2312.96 37.48,-2304.43"/>
<polygon fill="black" stroke="black" points="40.98,-2304.21 37.48,-2294.21 33.98,-2304.21 40.98,-2304.21"/>
</g>
<!-- 132580647 -->
<g id="node3" class="node">
<title>132580647</title>
<ellipse fill="none" stroke="black" cx="37.48" cy="-2145.59" rx="37.45" ry="37.45"/>
<text text-anchor="middle" x="37.48" y="-2156.89" font-family="Times,serif" font-size="14.00">132</text>
<text text-anchor="middle" x="37.48" y="-2141.89" font-family="Times,serif" font-size="14.00">580</text>
<text text-anchor="middle" x="37.48" y="-2126.89" font-family="Times,serif" font-size="14.00">647</text>
</g>
<!-- 132587640&#45;&gt;132580647 -->
<g id="edge2" class="edge">
<title>132587640&#45;&gt;132580647</title>
<path fill="none" stroke="black" d="M37.48,-2218.96C37.48,-2210.79 37.48,-2202.01 37.48,-2193.48"/>
<polygon fill="black" stroke="black" points="40.98,-2193.26 37.48,-2183.26 33.98,-2193.26 40.98,-2193.26"/>
</g>
<!-- 132508647 -->
<g id="node4" class="node">
<title>132508647</title>
<ellipse fill="none" stroke="black" cx="37.48" cy="-2034.64" rx="37.45" ry="37.45"/>
<text text-anchor="middle" x="37.48" y="-2045.94" font-family="Times,serif" font-size="14.00">132</text>
<text text-anchor="middle" x="37.48" y="-2030.94" font-family="Times,serif" font-size="14.00">508</text>
<text text-anchor="middle" x="37.48" y="-2015.94" font-family="Times,serif" font-size="14.00">647</text>
</g>
<!-- 132580647&#45;&gt;132508647 -->
<g id="edge3" class="edge">
<title>132580647&#45;&gt;132508647</title>
<path fill="none" stroke="black" d="M37.48,-2108.01C37.48,-2099.83 37.48,-2091.05 37.48,-2082.53"/>
<polygon fill="black" stroke="black" points="40.98,-2082.31 37.48,-2072.31 33.98,-2082.31 40.98,-2082.31"/>
</g>
<!-- 102538647 -->
<g id="node5" class="node">
<title>102538647</title>
<ellipse fill="none" stroke="black" cx="37.48" cy="-1923.68" rx="37.45" ry="37.45"/>
<text text-anchor="middle" x="37.48" y="-1934.98" font-family="Times,serif" font-size="14.00">102</text>
<text text-anchor="middle" x="37.48" y="-1919.98" font-family="Times,serif" font-size="14.00">538</text>
<text text-anchor="middle" x="37.48" y="-1904.98" font-family="Times,serif" font-size="14.00">647</text>
</g>
<!-- 132508647&#45;&gt;102538647 -->
<g id="edge4" class="edge">
<title>132508647&#45;&gt;102538647</title>
<path fill="none" stroke="black" d="M37.48,-1997.05C37.48,-1988.88 37.48,-1980.1 37.48,-1971.57"/>
<polygon fill="black" stroke="black" points="40.98,-1971.35 37.48,-1961.35 33.98,-1971.35 40.98,-1971.35"/>
</g>
<!-- 012538647 -->
<g id="node6" class="node">
<title>012538647</title>
<ellipse fill="none" stroke="black" cx="37.48" cy="-1812.73" rx="37.45" ry="37.45"/>
<text text-anchor="middle" x="37.48" y="-1824.03" font-family="Times,serif" font-size="14.00">012</text>
<text text-anchor="middle" x="37.48" y="-1809.03" font-family="Times,serif" font-size="14.00">538</text>
<text text-anchor="middle" x="37.48" y="-1794.03" font-family="Times,serif" font-size="14.00">647</text>
</g>
<!-- 102538647&#45;&gt;012538647 -->
<g id="edge5" class="edge">
<title>102538647&#45;&gt;012538647</title>
<path fill="none" stroke="black" d="M37.48,-1886.1C37.48,-1877.93 37.48,-1869.15 37.48,-1860.62"/>
<polygon fill="black" stroke="black" points="40.98,-1860.4 37.48,-1850.4 33.98,-1860.4 40.98,-1860.4"/>
</g>
<!-- 512038647 -->
<g id="node7" class="node">
<title>512038647</title>
<ellipse fill="none" stroke="black" cx="37.48" cy="-1701.78" rx="37.45" ry="37.45"/>
<text text-anchor="middle" x="37.48" y="-1713.08" font-family="Times,serif" font-size="14.00">512</text>
<text text-anchor="middle" x="37.48" y="-1698.08" font-family="Times,serif" font-size="14.00">038</text>
<text text-anchor="middle" x="37.48" y="-1683.08" font-family="Times,serif" font-size="14.00">647</text>
</g>
<!-- 012538647&#45;&gt;512038647 -->
<g id="edge6" class="edge">
<title>012538647&#45;&gt;512038647</title>
<path fill="none" stroke="black" d="M37.48,-1775.15C37.48,-1766.97 37.48,-1758.19 37.48,-1749.67"/>
<polygon fill="black" stroke="black" points="40.98,-1749.45 37.48,-1739.45 33.98,-1749.45 40.98,-1749.45"/>
</g>
<!-- 512638047 -->
<g id="node8" class="node">
<title>512638047</title>
<ellipse fill="none" stroke="black" cx="37.48" cy="-1590.82" rx="37.45" ry="37.45"/>
<text text-anchor="middle" x="37.48" y="-1602.12" font-family="Times,serif" font-size="14.00">512</text>
<text text-anchor="middle" x="37.48" y="-1587.12" font-family="Times,serif" font-size="14.00">638</text>
<text text-anchor="middle" x="37.48" y="-1572.12" font-family="Times,serif" font-size="14.00">047</text>
</g>
<!-- 512038647&#45;&gt;512638047 -->
<g id="edge7" class="edge">
<title>512038647&#45;&gt;512638047</title>
<path fill="none" stroke="black" d="M37.48,-1664.19C37.48,-1656.02 37.48,-1647.24 37.48,-1638.71"/>
<polygon fill="black" stroke="black" points="40.98,-1638.49 37.48,-1628.49 33.98,-1638.5 40.98,-1638.49"/>
</g>
<!-- 512638407 -->
<g id="node9" class="node">
<title>512638407</title>
<ellipse fill="none" stroke="black" cx="37.48" cy="-1479.87" rx="37.45" ry="37.45"/>
<text text-anchor="middle" x="37.48" y="-1491.17" font-family="Times,serif" font-size="14.00">512</text>
<text text-anchor="middle" x="37.48" y="-1476.17" font-family="Times,serif" font-size="14.00">638</text>
<text text-anchor="middle" x="37.48" y="-1461.17" font-family="Times,serif" font-size="14.00">407</text>
</g>
<!-- 512638047&#45;&gt;512638407 -->
<g id="edge8" class="edge">
<title>512638047&#45;&gt;512638407</title>
<path fill="none" stroke="black" d="M37.48,-1553.24C37.48,-1545.07 37.48,-1536.29 37.48,-1527.76"/>
<polygon fill="black" stroke="black" points="40.98,-1527.54 37.48,-1517.54 33.98,-1527.54 40.98,-1527.54"/>
</g>
<!-- 512638470 -->
<g id="node10" class="node">
<title>512638470</title>
<ellipse fill="none" stroke="black" cx="37.48" cy="-1368.92" rx="37.45" ry="37.45"/>
<text text-anchor="middle" x="37.48" y="-1380.22" font-family="Times,serif" font-size="14.00">512</text>
<text text-anchor="middle" x="37.48" y="-1365.22" font-family="Times,serif" font-size="14.00">638</text>
<text text-anchor="middle" x="37.48" y="-1350.22" font-family="Times,serif" font-size="14.00">470</text>
</g>
<!-- 512638407&#45;&gt;512638470 -->
<g id="edge9" class="edge">
<title>512638407&#45;&gt;512638470</title>
<path fill="none" stroke="black" d="M37.48,-1442.29C37.48,-1434.11 37.48,-1425.33 37.48,-1416.81"/>
<polygon fill="black" stroke="black" points="40.98,-1416.59 37.48,-1406.59 33.98,-1416.59 40.98,-1416.59"/>
</g>
<!-- 512630478 -->
<g id="node11" class="node">
<title>512630478</title>
<ellipse fill="none" stroke="black" cx="37.48" cy="-1257.96" rx="37.45" ry="37.45"/>
<text text-anchor="middle" x="37.48" y="-1269.26" font-family="Times,serif" font-size="14.00">512</text>
<text text-anchor="middle" x="37.48" y="-1254.26" font-family="Times,serif" font-size="14.00">630</text>
<text text-anchor="middle" x="37.48" y="-1239.26" font-family="Times,serif" font-size="14.00">478</text>
</g>
<!-- 512638470&#45;&gt;512630478 -->
<g id="edge10" class="edge">
<title>512638470&#45;&gt;512630478</title>
<path fill="none" stroke="black" d="M37.48,-1331.33C37.48,-1323.16 37.48,-1314.38 37.48,-1305.85"/>
<polygon fill="black" stroke="black" points="40.98,-1305.64 37.48,-1295.64 33.98,-1305.64 40.98,-1305.64"/>
</g>
<!-- 512603478 -->
<g id="node12" class="node">
<title>512603478</title>
<ellipse fill="none" stroke="black" cx="37.48" cy="-1147.01" rx="37.45" ry="37.45"/>
<text text-anchor="middle" x="37.48" y="-1158.31" font-family="Times,serif" font-size="14.00">512</text>
<text text-anchor="middle" x="37.48" y="-1143.31" font-family="Times,serif" font-size="14.00">603</text>
<text text-anchor="middle" x="37.48" y="-1128.31" font-family="Times,serif" font-size="14.00">478</text>
</g>
<!-- 512630478&#45;&gt;512603478 -->
<g id="edge11" class="edge">
<title>512630478&#45;&gt;512603478</title>
<path fill="none" stroke="black" d="M37.48,-1220.38C37.48,-1212.21 37.48,-1203.43 37.48,-1194.9"/>
<polygon fill="black" stroke="black" points="40.98,-1194.68 37.48,-1184.68 33.98,-1194.68 40.98,-1194.68"/>
</g>
<!-- 512063478 -->
<g id="node13" class="node">
<title>512063478</title>
<ellipse fill="none" stroke="black" cx="37.48" cy="-1036.06" rx="37.45" ry="37.45"/>
<text text-anchor="middle" x="37.48" y="-1047.36" font-family="Times,serif" font-size="14.00">512</text>
<text text-anchor="middle" x="37.48" y="-1032.36" font-family="Times,serif" font-size="14.00">063</text>
<text text-anchor="middle" x="37.48" y="-1017.36" font-family="Times,serif" font-size="14.00">478</text>
</g>
<!-- 512603478&#45;&gt;512063478 -->
<g id="edge12" class="edge">
<title>512603478&#45;&gt;512063478</title>
<path fill="none" stroke="black" d="M37.48,-1109.43C37.48,-1101.25 37.48,-1092.47 37.48,-1083.95"/>
<polygon fill="black" stroke="black" points="40.98,-1083.73 37.48,-1073.73 33.98,-1083.73 40.98,-1083.73"/>
</g>
<!-- 012563478 -->
<g id="node14" class="node">
<title>012563478</title>
<ellipse fill="none" stroke="black" cx="37.48" cy="-925.1" rx="37.45" ry="37.45"/>
<text text-anchor="middle" x="37.48" y="-936.4" font-family="Times,serif" font-size="14.00">012</text>
<text text-anchor="middle" x="37.48" y="-921.4" font-family="Times,serif" font-size="14.00">563</text>
<text text-anchor="middle" x="37.48" y="-906.4" font-family="Times,serif" font-size="14.00">478</text>
</g>
<!-- 512063478&#45;&gt;012563478 -->
<g id="edge13" class="edge">
<title>512063478&#45;&gt;012563478</title>
<path fill="none" stroke="black" d="M37.48,-998.47C37.48,-990.3 37.48,-981.52 37.48,-972.99"/>
<polygon fill="black" stroke="black" points="40.98,-972.78 37.48,-962.78 33.98,-972.78 40.98,-972.78"/>
</g>
<!-- 102563478 -->
<g id="node15" class="node">
<title>102563478</title>
<ellipse fill="none" stroke="black" cx="37.48" cy="-814.15" rx="37.45" ry="37.45"/>
<text text-anchor="middle" x="37.48" y="-825.45" font-family="Times,serif" font-size="14.00">102</text>
<text text-anchor="middle" x="37.48" y="-810.45" font-family="Times,serif" font-size="14.00">563</text>
<text text-anchor="middle" x="37.48" y="-795.45" font-family="Times,serif" font-size="14.00">478</text>
</g>
<!-- 012563478&#45;&gt;102563478 -->
<g id="edge14" class="edge">
<title>012563478&#45;&gt;102563478</title>
<path fill="none" stroke="black" d="M37.48,-887.52C37.48,-879.35 37.48,-870.57 37.48,-862.04"/>
<polygon fill="black" stroke="black" points="40.98,-861.82 37.48,-851.82 33.98,-861.82 40.98,-861.82"/>
</g>
<!-- 120563478 -->
<g id="node16" class="node">
<title>120563478</title>
<ellipse fill="none" stroke="black" cx="37.48" cy="-703.2" rx="37.45" ry="37.45"/>
<text text-anchor="middle" x="37.48" y="-714.5" font-family="Times,serif" font-size="14.00">120</text>
<text text-anchor="middle" x="37.48" y="-699.5" font-family="Times,serif" font-size="14.00">563</text>
<text text-anchor="middle" x="37.48" y="-684.5" font-family="Times,serif" font-size="14.00">478</text>
</g>
<!-- 102563478&#45;&gt;120563478 -->
<g id="edge15" class="edge">
<title>102563478&#45;&gt;120563478</title>
<path fill="none" stroke="black" d="M37.48,-776.57C37.48,-768.39 37.48,-759.61 37.48,-751.09"/>
<polygon fill="black" stroke="black" points="40.98,-750.87 37.48,-740.87 33.98,-750.87 40.98,-750.87"/>
</g>
<!-- 123560478 -->
<g id="node17" class="node">
<title>123560478</title>
<ellipse fill="none" stroke="black" cx="37.48" cy="-592.24" rx="37.45" ry="37.45"/>
<text text-anchor="middle" x="37.48" y="-603.54" font-family="Times,serif" font-size="14.00">123</text>
<text text-anchor="middle" x="37.48" y="-588.54" font-family="Times,serif" font-size="14.00">560</text>
<text text-anchor="middle" x="37.48" y="-573.54" font-family="Times,serif" font-size="14.00">478</text>
</g>
<!-- 120563478&#45;&gt;123560478 -->
<g id="edge16" class="edge">
<title>120563478&#45;&gt;123560478</title>
<path fill="none" stroke="black" d="M37.48,-665.61C37.48,-657.44 37.48,-648.66 37.48,-640.13"/>
<polygon fill="black" stroke="black" points="40.98,-639.92 37.48,-629.92 33.98,-639.92 40.98,-639.92"/>
</g>
<!-- 123506478 -->
<g id="node18" class="node">
<title>123506478</title>
<ellipse fill="none" stroke="black" cx="37.48" cy="-481.29" rx="37.45" ry="37.45"/>
<text text-anchor="middle" x="37.48" y="-492.59" font-family="Times,serif" font-size="14.00">123</text>
<text text-anchor="middle" x="37.48" y="-477.59" font-family="Times,serif" font-size="14.00">506</text>
<text text-anchor="middle" x="37.48" y="-462.59" font-family="Times,serif" font-size="14.00">478</text>
</g>
<!-- 123560478&#45;&gt;123506478 -->
<g id="edge17" class="edge">
<title>123560478&#45;&gt;123506478</title>
<path fill="none" stroke="black" d="M37.48,-554.66C37.48,-546.49 37.48,-537.71 37.48,-529.18"/>
<polygon fill="black" stroke="black" points="40.98,-528.96 37.48,-518.96 33.98,-528.96 40.98,-528.96"/>
</g>
<!-- 123056478 -->
<g id="node19" class="node">
<title>123056478</title>
<ellipse fill="none" stroke="black" cx="37.48" cy="-370.34" rx="37.45" ry="37.45"/>
<text text-anchor="middle" x="37.48" y="-381.64" font-family="Times,serif" font-size="14.00">123</text>
<text text-anchor="middle" x="37.48" y="-366.64" font-family="Times,serif" font-size="14.00">056</text>
<text text-anchor="middle" x="37.48" y="-351.64" font-family="Times,serif" font-size="14.00">478</text>
</g>
<!-- 123506478&#45;&gt;123056478 -->
<g id="edge18" class="edge">
<title>123506478&#45;&gt;123056478</title>
<path fill="none" stroke="black" d="M37.48,-443.71C37.48,-435.53 37.48,-426.75 37.48,-418.23"/>
<polygon fill="black" stroke="black" points="40.98,-418.01 37.48,-408.01 33.98,-418.01 40.98,-418.01"/>
</g>
<!-- 123456078 -->
<g id="node20" class="node">
<title>123456078</title>
<ellipse fill="none" stroke="black" cx="37.48" cy="-259.38" rx="37.45" ry="37.45"/>
<text text-anchor="middle" x="37.48" y="-270.68" font-family="Times,serif" font-size="14.00">123</text>
<text text-anchor="middle" x="37.48" y="-255.68" font-family="Times,serif" font-size="14.00">456</text>
<text text-anchor="middle" x="37.48" y="-240.68" font-family="Times,serif" font-size="14.00">078</text>
</g>
<!-- 123056478&#45;&gt;123456078 -->
<g id="edge19" class="edge">
<title>123056478&#45;&gt;123456078</title>
<path fill="none" stroke="black" d="M37.48,-332.75C37.48,-324.58 37.48,-315.8 37.48,-307.27"/>
<polygon fill="black" stroke="black" points="40.98,-307.06 37.48,-297.06 33.98,-307.06 40.98,-307.06"/>
</g>
<!-- 123456708 -->
<g id="node21" class="node">
<title>123456708</title>
<ellipse fill="none" stroke="black" cx="37.48" cy="-148.43" rx="37.45" ry="37.45"/>
<text text-anchor="middle" x="37.48" y="-159.73" font-family="Times,serif" font-size="14.00">123</text>
<text text-anchor="middle" x="37.48" y="-144.73" font-family="Times,serif" font-size="14.00">456</text>
<text text-anchor="middle" x="37.48" y="-129.73" font-family="Times,serif" font-size="14.00">708</text>
</g>
<!-- 123456078&#45;&gt;123456708 -->
<g id="edge20" class="edge">
<title>123456078&#45;&gt;123456708</title>
<path fill="none" stroke="black" d="M37.48,-221.8C37.48,-213.63 37.48,-204.85 37.48,-196.32"/>
<polygon fill="black" stroke="black" points="40.98,-196.1 37.48,-186.1 33.98,-196.1 40.98,-196.1"/>
</g>
<!-- 123456780 -->
<g id="node22" class="node">
<title>123456780</title>
<ellipse fill="none" stroke="black" cx="37.48" cy="-37.48" rx="37.45" ry="37.45"/>
<text text-anchor="middle" x="37.48" y="-48.78" font-family="Times,serif" font-size="14.00">123</text>
<text text-anchor="middle" x="37.48" y="-33.78" font-family="Times,serif" font-size="14.00">456</text>
<text text-anchor="middle" x="37.48" y="-18.78" font-family="Times,serif" font-size="14.00">780</text>
</g>
<!-- 123456708&#45;&gt;123456780 -->
<g id="edge21" class="edge">
<title>123456708&#45;&gt;123456780</title>
<path fill="none" stroke="black" d="M37.48,-110.85C37.48,-102.67 37.48,-93.89 37.48,-85.37"/>
<polygon fill="black" stroke="black" points="40.98,-85.15 37.48,-75.15 33.98,-85.15 40.98,-85.15"/>
</g>
</g>
</svg>
